<?xml version="1.0" encoding="UTF-8"?>
<svg width="300" height="75" id="_Слой_1" data-name="Слой 1" xmlns="http://www.w3.org/2000/svg" viewBox="0 0 451.99 112.39">
  <defs>
    <style>
      .cls-1 {
        fill: #d3d3d3;
      }

      .cls-2 {
        fill: #822638;
      }
    </style>
  </defs>
  <path class="cls-2" d="M53.16,0h22.95V110.92h-22.95L26.58,44.68V110.92H3.62V16.97H0L2.42,0H27.79l26.82,71.45L53.16,0Z"/>
  <path class="cls-2" d="M138.44,100.38l-1.93,11.17h-52.92V38.67h-3.62l2.42-11.17h56.06l-2.42,11.17h-29.48v25.21h27.06l-2.42,11.17h-24.65v25.33h31.9Z"/>
  <path class="cls-2" d="M141.1,111.55l22.71-42.02-22.71-42.02h24.16l12.81,29.18,13.05-29.18h24.16l-22.95,42.02,22.95,42.02h-24.16l-13.05-29.18-12.81,29.18h-24.16Z"/>
  <path class="cls-1" d="M83.39,18.37V0h199.27V18.37h-37.52V110.92h-22.95V18.37H83.39Z"/>
  <path class="cls-1" d="M320.07,100.86c0,3.36-2.1,6.06-6.28,8.1-4.19,2.04-9.67,3.06-16.43,3.06h-14.98c-6.77,0-12.24-1.02-16.43-3.06-4.19-2.04-6.28-4.74-6.28-8.1V38.67h-3.63l2.42-11.17h24.16V100.26c0,.4,.4,.6,1.21,.6h12.08c.8,0,1.21-.2,1.21-.6V27.74h22.95V100.86Z"/>
  <path class="cls-1" d="M327.56,112.39V38.67h-3.63l2.42-11.17h38.18c6.77,0,12.24,1.02,16.43,3.06,4.19,2.04,6.28,4.74,6.28,8.1v25.21c0,1.12-.32,2.2-.97,3.24,3.87,2.08,5.8,4.72,5.8,7.92v26.18c0,3.36-2.54,6.06-7.61,8.11-5.07,2.04-10.99,3.06-17.76,3.06h-39.14Zm35.52-73.72h-12.56v25.21h12.56c.8,0,1.21-.2,1.21-.6v-24.01c0-.4-.4-.6-1.21-.6Zm4.83,36.38h-17.39v26.18h17.39c.8,0,1.21-.2,1.21-.6v-24.97c0-.4-.41-.6-1.21-.6Z"/>
  <path class="cls-1" d="M451.99,100.38l-1.93,11.17h-52.91V38.67h-3.63l2.42-11.17h56.06l-2.42,11.17h-29.48v25.21h27.06l-2.42,11.17h-24.64v25.33h31.89Z"/>
</svg>